0
SECTION
2
HEADER
9
$INSUNITS
70
5
0
ENDSEC
0
SECTION
2
TABLES
0
TABLE
2
LTYPE
0
LTYPE
72
65
70
64
2
CONTINUOUS
3
______
73
0
40
0
0
ENDTAB
0
TABLE
2
LAYER
0
ENDTAB
0
ENDSEC
0
SECTION
2
ENTITIES
0
POLYLINE
8
0
66
1
70
1
0
VERTEX
8
0
10
69.1894531
20
45.1171875
0
VERTEX
8
0
10
63.1835938
20
45.1171875
0
VERTEX
8
0
10
63.1835938
20
47.1191406
0
VERTEX
8
0
10
73.3886719
20
48.1933594
0
VERTEX
8
0
10
80.2734375
20
50
0
VERTEX
8
0
10
80.9570313
20
48.5839844
0
VERTEX
8
0
10
80.9570313
20
41.9921875
0
VERTEX
8
0
10
81.1523438
20
41.9921875
42
-0.0590793
0
VERTEX
8
0
10
84.9152595
20
46.3807642
42
-0.1921919
0
VERTEX
8
0
10
95.1660156
20
50.4882812
42
-0.0560908
0
VERTEX
8
0
10
98.4863281
20
50.1220703
42
-0.0364621
0
VERTEX
8
0
10
100.2998292
20
49.5608926
42
-0.0249251
0
VERTEX
8
0
10
101.8798828
20
48.852539
42
-0.0720204
0
VERTEX
8
0
10
103.8594648
20
47.4419206
42
-0.0414064
0
VERTEX
8
0
10
105.1269531
20
46.0205078
42
-0.0577729
0
VERTEX
8
0
10
106.6765189
20
43.3707178
42
-0.0311068
0
VERTEX
8
0
10
107.421875
20
41.3574219
0
VERTEX
8
0
10
107.5195313
20
41.3574218
42
-0.0548509
0
VERTEX
8
0
10
111.593771
20
45.9741235
42
-0.1055154
0
VERTEX
8
0
10
117.963898
20
49.7432689
42
-0.0787122
0
VERTEX
8
0
10
122.7539063
20
50.4882813
42
-0.0487593
0
VERTEX
8
0
10
126.0742187
20
50.1708984
42
-0.0430157
0
VERTEX
8
0
10
127.6167199
20
49.7175112
42
-0.029625
0
VERTEX
8
0
10
129.06362
20
49.055087
42
-0.0084684
0
VERTEX
8
0
10
129.5654297
20
48.7792969
42
-0.0953568
0
VERTEX
8
0
10
132.8125
20
45.9960938
42
-0.046632
0
VERTEX
8
0
10
133.81356
20
44.4486081
42
-0.0305162
0
VERTEX
8
0
10
134.5815163
20
42.7408555
42
-0.0186872
0
VERTEX
8
0
10
135.1074218
20
41.1865235
42
-0.0400811
0
VERTEX
8
0
10
135.7959181
20
37.891899
42
-0.0289147
0
VERTEX
8
0
10
136.0314181
20
34.501048
42
-0.0036455
0
VERTEX
8
0
10
136.0351563
20
33.984375
0
VERTEX
8
0
10
136.0351563
20
2.4902344
0
VERTEX
8
0
10
141.0644531
20
2.0019531
0
VERTEX
8
0
10
141.0644531
20
0
0
VERTEX
8
0
10
119.0429688
20
0
0
VERTEX
8
0
10
119.0429688
20
2.0019531
0
VERTEX
8
0
10
124.0234375
20
2.4902344
0
VERTEX
8
0
10
124.0234375
20
35.6933594
42
0.0203051
0
VERTEX
8
0
10
123.9388227
20
37.9010916
42
0.0273241
0
VERTEX
8
0
10
123.6676772
20
39.9338642
42
0.0128191
0
VERTEX
8
0
10
123.5107421
20
40.6494141
42
0.0157674
0
VERTEX
8
0
10
123.193419
20
41.789037
42
0.0223628
0
VERTEX
8
0
10
122.8373746
20
42.7746828
42
0.032998
0
VERTEX
8
0
10
122.4438355
20
43.5784698
42
0.0108006
0
VERTEX
8
0
10
122.3388672
20
43.75
42
0.077019
0
VERTEX
8
0
10
121.3370084
20
44.8960542
42
0.0430068
0
VERTEX
8
0
10
120.703125
20
45.336914
42
0.0150153
0
VERTEX
8
0
10
120.1847076
20
45.6160784
42
0.0197505
0
VERTEX
8
0
10
119.7458803
20
45.8147485
42
0.0312858
0
VERTEX
8
0
10
119.3308993
20
45.9548728
42
0.022718
0
VERTEX
8
0
10
119.140625
20
45.9960938
42
0.0227694
0
VERTEX
8
0
10
118.5180664
20
46.0693359
42
0.0183269
0
VERTEX
8
0
10
117.8279855
20
46.0937485
42
0.0002098
0
VERTEX
8
0
10
117.8222656
20
46.09375
42
0.1314529
0
VERTEX
8
0
10
114.5966172
20
45.1921931
42
0.0593573
0
VERTEX
8
0
10
112.6200704
20
43.7094948
42
0.0271616
0
VERTEX
8
0
10
111.4501953
20
42.4804687
42
0.1107284
0
VERTEX
8
0
10
108.9972522
20
37.7649315
42
0.0553079
0
VERTEX
8
0
10
108.3806001
20
33.8009751
42
0.0128382
0
VERTEX
8
0
10
108.3496094
20
32.5683594
0
VERTEX
8
0
10
108.3496094
20
2.4902344
0
VERTEX
8
0
10
113.3789063
20
2.0019531
0
VERTEX
8
0
10
113.3789063
20
0
0
VERTEX
8
0
10
91.3574219
20
0
0
VERTEX
8
0
10
91.3574219
20
2.0019531
0
VERTEX
8
0
10
96.3378906
20
2.4902344
0
VERTEX
8
0
10
96.3378906
20
35.6933594
42
0.0193409
0
VERTEX
8
0
10
96.2573051
20
37.9010916
42
0.0247887
0
VERTEX
8
0
10
96.0139971
20
39.8515849
42
0.0135447
0
VERTEX
8
0
10
95.8496094
20
40.649414
42
0.0163257
0
VERTEX
8
0
10
95.5446303
20
41.789037
42
0.0231496
0
VERTEX
8
0
10
95.1968369
20
42.7746828
42
0.0345011
0
VERTEX
8
0
10
94.8029688
20
43.5853176
42
0.0107239
0
VERTEX
8
0
10
94.7021484
20
43.75
42
0.0669436
0
VERTEX
8
0
10
93.8160896
20
44.8041201
42
0.0501836
0
VERTEX
8
0
10
93.0908203
20
45.3369141
42
0.015716
0
VERTEX
8
0
10
92.5842046
20
45.6160784
42
0.0225625
0
VERTEX
8
0
10
92.1195364
20
45.8282621
42
0.0330081
0
VERTEX
8
0
10
91.715531
20
45.9617964
42
0.0202382
0
VERTEX
8
0
10
91.5527343
20
45.9960938
42
0.0227694
0
VERTEX
8
0
10
90.9301757
20
46.0693359
42
0.0183269
0
VERTEX
8
0
10
90.2400948
20
46.0937485
42
0.0002098
0
VERTEX
8
0
10
90.234375
20
46.09375
42
0.1380462
0
VERTEX
8
0
10
87.528038
20
45.2899933
42
0.0610796
0
VERTEX
8
0
10
85.8178615
20
43.9244271
42
0.0387241
0
VERTEX
8
0
10
84.2880314
20
42.113055
42
0.0033199
0
VERTEX
8
0
10
84.1308594
20
41.8945312
42
0.1117859
0
VERTEX
8
0
10
81.4730287
20
35.3922009
42
0.0441765
0
VERTEX
8
0
10
81.1523438
20
31.5917969
0
VERTEX
8
0
10
81.1523438
20
2.4902344
0
VERTEX
8
0
10
86.1816406
20
2.0019531
0
VERTEX
8
0
10
86.1816406
20
0
0
VERTEX
8
0
10
64.1601563
20
0
0
VERTEX
8
0
10
64.1601563
20
2.0019531
0
VERTEX
8
0
10
69.1894531
20
2.4902344
0
SEQEND
0
POLYLINE
8
0
66
1
70
1
0
VERTEX
8
0
10
195.3125
20
45.1171875
0
VERTEX
8
0
10
195.2148438
20
47.1191406
0
VERTEX
8
0
10
205.4199219
20
48.1933594
0
VERTEX
8
0
10
212.3046875
20
50
0
VERTEX
8
0
10
213.1835938
20
48.5839844
0
VERTEX
8
0
10
212.9882813
20
41.9921875
0
VERTEX
8
0
10
213.1835938
20
41.9921875
42
-0.0746013
0
VERTEX
8
0
10
217.5822258
20
46.829319
42
-0.1750395
0
VERTEX
8
0
10
228.2226562
20
50.4882813
42
-0.0375744
0
VERTEX
8
0
10
231.0846805
20
50.2797127
42
-0.0074331
0
VERTEX
8
0
10
231.5917969
20
50.1953125
42
-0.0387935
0
VERTEX
8
0
10
233.067131
20
49.7987748
42
-0.0278129
0
VERTEX
8
0
10
234.5468236
20
49.1830619
42
-0.0091959
0
VERTEX
8
0
10
235.15625
20
48.8769531
42
-0.0964559
0
VERTEX
8
0
10
238.5253907
20
46.1914063
42
-0.0484478
0
VERTEX
8
0
10
239.5645976
20
44.6783424
42
-0.0317119
0
VERTEX
8
0
10
240.3660279
20
42.9946573
42
-0.019385
0
VERTEX
8
0
10
240.9179688
20
41.4550781
42
-0.0424451
0
VERTEX
8
0
10
241.6427016
20
38.178572
42
-0.0305326
0
VERTEX
8
0
10
241.8905964
20
34.7939184
42
-0.0038388
0
VERTEX
8
0
10
241.8945313
20
34.2773438
0
VERTEX
8
0
10
241.8945313
20
2.4902344
0
VERTEX
8
0
10
246.875
20
2.0019531
0
VERTEX
8
0
10
246.875
20
0
0
VERTEX
8
0
10
224.9023438
20
0
0
VERTEX
8
0
10
224.9023438
20
2.0019531
0
VERTEX
8
0
10
229.8828125
20
2.4902344
0
VERTEX
8
0
10
229.8828125
20
35.6933594
42
0.0366372
0
VERTEX
8
0
10
229.6476364
20
39.2278672
42
0.0630168
0
VERTEX
8
0
10
228.8286397
20
42.3117313
42
0.1479041
0
VERTEX
8
0
10
226.6191411
20
45.1482453
42
0.1513219
0
VERTEX
8
0
10
223.1933594
20
46.09375
42
0.221882
0
VERTEX
8
0
10
216.9073343
20
43.2433128
42
0.0309442
0
VERTEX
8
0
10
215.991211
20
42.0898438
42
0.0901151
0
VERTEX
8
0
10
213.8529818
20
37.340013
42
0.0497109
0
VERTEX
8
0
10
213.2254305
20
33.1401731
42
0.0138254
0
VERTEX
8
0
10
213.1835938
20
31.5917969
0
VERTEX
8
0
10
213.1835938
20
2.4902344
0
VERTEX
8
0
10
218.2128906
20
2.0019531
0
VERTEX
8
0
10
218.2128906
20
0
0
VERTEX
8
0
10
196.1914063
20
0
0
VERTEX
8
0
10
196.1914063
20
2.0019531
0
VERTEX
8
0
10
201.2207031
20
2.4902344
0
VERTEX
8
0
10
201.2207031
20
45.2148438
0
SEQEND
0
POLYLINE
8
0
66
1
70
1
0
VERTEX
8
0
10
14.9902344
20
0
0
VERTEX
8
0
10
-0.2929687
20
0
0
VERTEX
8
0
10
-0.2929687
20
2.1972656
0
VERTEX
8
0
10
5.6152344
20
2.6855469
0
VERTEX
8
0
10
28.7109375
20
71.6796875
0
VERTEX
8
0
10
30.9082031
20
71.6796875
0
VERTEX
8
0
10
54.7851563
20
2.6855469
0
VERTEX
8
0
10
61.2304688
20
2.1972656
0
VERTEX
8
0
10
61.2304688
20
0
0
VERTEX
8
0
10
35.1074219
20
0
0
VERTEX
8
0
10
35.1074219
20
2.1972656
0
VERTEX
8
0
10
41.6992188
20
2.6855469
0
VERTEX
8
0
10
35.9375
20
20.2148438
0
VERTEX
8
0
10
14.0625
20
20.2148438
0
VERTEX
8
0
10
8.3984375
20
2.6855469
0
VERTEX
8
0
10
14.9902344
20
2.1972656
0
SEQEND
0
POLYLINE
8
0
66
1
70
1
0
VERTEX
8
0
10
173.2421875
20
26.171875
0
VERTEX
8
0
10
173.2421875
20
32.9101563
42
0.0026101
0
VERTEX
8
0
10
173.2345581
20
34.4451904
42
0.0043752
0
VERTEX
8
0
10
173.2013882
20
36.2283587
42
0.0057636
0
VERTEX
8
0
10
173.1445086
20
37.6989
42
0.0024225
0
VERTEX
8
0
10
173.1201172
20
38.1347657
42
0.0340405
0
VERTEX
8
0
10
172.6808157
20
41.4644213
42
0.0072491
0
VERTEX
8
0
10
172.5097656
20
42.2607422
42
0.0278671
0
VERTEX
8
0
10
172.1299526
20
43.5916275
42
0.0395153
0
VERTEX
8
0
10
171.6214524
20
44.7583554
42
0.0427019
0
VERTEX
8
0
10
171.118164
20
45.5322266
42
0.0727764
0
VERTEX
8
0
10
169.8701858
20
46.6995239
42
0.0452506
0
VERTEX
8
0
10
168.5791015
20
47.4365235
42
0.0606533
0
VERTEX
8
0
10
166.797404
20
47.9981915
42
0.0398973
0
VERTEX
8
0
10
165.0395103
20
48.186498
42
0.0079109
0
VERTEX
8
0
10
164.5996094
20
48.1933594
42
0.0763914
0
VERTEX
8
0
10
160.3365779
20
47.5887894
42
0.1934571
0
VERTEX
8
0
10
154.1992188
20
42.578125
0
VERTEX
8
0
10
154.1992187
20
42.3828125
42
-0.0191843
0
VERTEX
8
0
10
154.9808413
20
42.4915224
42
-0.024422
0
VERTEX
8
0
10
155.7128907
20
42.5292968
42
-0.0639177
0
VERTEX
8
0
10
157.399106
20
42.3274994
42
-0.1444178
0
VERTEX
8
0
10
159.7167969
20
40.9667969
42
-0.1141675
0
VERTEX
8
0
10
160.8379602
20
38.9919758
42
-0.0555269
0
VERTEX
8
0
10
161.1480781
20
37.3302014
42
-0.0203069
0
VERTEX
8
0
10
161.1816407
20
36.4746094
42
-0.1054659
0
VERTEX
8
0
10
160.6855393
20
34.0042353
42
-0.0950179
0
VERTEX
8
0
10
159.4238281
20
32.2021484
42
-0.1951164
0
VERTEX
8
0
10
155.2948222
20
30.47322
42
-0.0084869
0
VERTEX
8
0
10
155.0292968
20
30.46875
42
-0.0736801
0
VERTEX
8
0
10
153.0403137
20
30.7434082
42
-0.1472346
0
VERTEX
8
0
10
150.4882812
20
32.421875
42
-0.1837584
0
VERTEX
8
0
10
148.828125
20
37.0117188
42
-0.2158416
0
VERTEX
8
0
10
152.5302186
20
45.3138858
42
-0.0314992
0
VERTEX
8
0
10
154.1259766
20
46.6308593
42
-0.1625129
0
VERTEX
8
0
10
166.2951485
20
50.4882776
42
-0.0001339
0
VERTEX
8
0
10
166.3085937
20
50.4882812
42
-0.0220399
0
VERTEX
8
0
10
169.7681427
20
50.3440857
42
-0.0307109
0
VERTEX
8
0
10
173.0881531
20
49.8561584
42
-0.019525
0
VERTEX
8
0
10
174.633789
20
49.4628907
42
-0.0303117
0
VERTEX
8
0
10
177.0198822
20
48.6011505
42
-0.0436469
0
VERTEX
8
0
10
179.2272857
20
47.4161436
42
-0.025523
0
VERTEX
8
0
10
180.1269531
20
46.7529297
42
-0.0887289
0
VERTEX
8
0
10
182.4238772
20
44.0259231
42
-0.0388477
0
VERTEX
8
0
10
183.3251953
20
42.1630859
42
-0.0642862
0
VERTEX
8
0
10
184.8388671
20
36.2304688
42
-0.0138982
0
VERTEX
8
0
10
185.062027
20
33.7677002
42
-0.0089116
0
VERTEX
8
0
10
185.1693153
20
31.4216614
42
-0.007196
0
VERTEX
8
0
10
185.2050781
20
28.8085938
0
VERTEX
8
0
10
185.2050781
20
2.4902344
0
VERTEX
8
0
10
190.234375
20
2.0019531
0
VERTEX
8
0
10
190.234375
20
0
0
VERTEX
8
0
10
174.7070313
20
0
0
VERTEX
8
0
10
173.3398438
20
7.7148438
0
VERTEX
8
0
10
173.2421875
20
7.7148438
42
-0.0433867
0
VERTEX
8
0
10
171.1439482
20
4.3511332
42
-0.0674703
0
VERTEX
8
0
10
168.1404696
20
1.2954281
42
-0.0156224
0
VERTEX
8
0
10
167.4560547
20
0.805664
42
-0.1059924
0
VERTEX
8
0
10
162.2797836
20
-1.2145322
42
-0.0428856
0
VERTEX
8
0
10
159.2285156
20
-1.4648437
42
-0.0585574
0
VERTEX
8
0
10
155.5402309
20
-1.062581
42
-0.1397064
0
VERTEX
8
0
10
150.5384265
20
1.635022
42
-0.0158832
0
VERTEX
8
0
10
150.0976562
20
2.0996094
42
-0.1903005
0
VERTEX
8
0
10
146.9238281
20
10.5957031
42
-0.0828219
0
VERTEX
8
0
10
147.6806641
20
15.2099609
42
-0.0659343
0
VERTEX
8
0
10
149.1713524
20
18.1839943
42
-0.0259842
0
VERTEX
8
0
10
150.1464844
20
19.4824219
42
-0.0685949
0
VERTEX
8
0
10
153.439331
20
22.4603653
42
-0.0142534
0
VERTEX
8
0
10
154.3457031
20
23.046875
42
-0.0408876
0
VERTEX
8
0
10
156.9431544
20
24.331832
42
-0.0296032
0
VERTEX
8
0
10
159.7999059
20
25.2778529
42
-0.0059136
0
VERTEX
8
0
10
160.5224609
20
25.4638671
42
-0.0362869
0
VERTEX
8
0
10
164.924717
20
26.1942864
42
-0.0237858
0
VERTEX
8
0
10
168.7011719
20
26.3671875
42
-0.0150612
0
VERTEX
8
0
10
171.8755722
20
26.2748718
42
-0.0075932
0
SEQEND
0
POLYLINE
8
0
66
1
70
1
0
VERTEX
8
0
10
24.9023438
20
53.515625
0
VERTEX
8
0
10
14.9414063
20
23.1445313
0
VERTEX
8
0
10
34.8632813
20
23.5351563
0
VERTEX
8
0
10
25.0976563
20
53.515625
0
SEQEND
0
POLYLINE
8
0
66
1
70
1
0
VERTEX
8
0
10
173.2421875
20
17.1875
0
VERTEX
8
0
10
173.2421875
20
23.9257812
42
0.0068084
0
VERTEX
8
0
10
172.0930099
20
24.0545273
42
0.009618
0
VERTEX
8
0
10
171.0258584
20
24.139242
42
0.0134263
0
VERTEX
8
0
10
170.1228102
20
24.169802
42
0.001091
0
VERTEX
8
0
10
170.0683594
20
24.1699219
42
0.0362488
0
VERTEX
8
0
10
167.7403868
20
24.0095377
42
0.0470132
0
VERTEX
8
0
10
165.5517578
20
23.4863281
42
0.0411881
0
VERTEX
8
0
10
164.0266002
20
22.8226424
42
0.0622593
0
VERTEX
8
0
10
162.5759238
20
21.7976819
42
0.0098732
0
VERTEX
8
0
10
162.4023437
20
21.6308593
42
0.0424836
0
VERTEX
8
0
10
160.9195709
20
19.8832274
42
0.0181361
0
VERTEX
8
0
10
160.4492187
20
19.1650391
42
0.0802081
0
VERTEX
8
0
10
159.3479633
20
16.4059877
42
0.0023854
0
VERTEX
8
0
10
159.3261719
20
16.3085938
42
0.0060973
0
VERTEX
8
0
10
159.1171503
20
15.297842
42
0.0076439
0
VERTEX
8
0
10
158.9660704
20
14.4514442
42
0.010377
0
VERTEX
8
0
10
158.8623047
20
13.7207031
42
0.0296485
0
VERTEX
8
0
10
158.7402344
20
11.6210937
42
0.0367688
0
VERTEX
8
0
10
158.9133262
20
9.1115237
42
0.0560227
0
VERTEX
8
0
10
159.5503206
20
6.6348974
42
0.0435003
0
VERTEX
8
0
10
160.2050782
20
5.2978515
42
0.0986721
0
VERTEX
8
0
10
161.5581035
20
3.7783802
42
0.1449909
0
VERTEX
8
0
10
164.0654645
20
2.8957733
42
0.0173954
0
VERTEX
8
0
10
164.5019531
20
2.8808594
42
0.1594607
0
VERTEX
8
0
10
167.7637517
20
3.9843202
42
0.0620242
0
VERTEX
8
0
10
169.4420751
20
5.5585529
42
0.0313065
0
VERTEX
8
0
10
170.5322265
20
7.03125
42
0.0981615
0
VERTEX
8
0
10
172.8571193
20
12.9232954
42
0.0475888
0
SEQEND
0
ENDSEC
0
EOF